<svg width="430" height="860" viewBox="0 0 430 860" fill="none" xmlns="http://www.w3.org/2000/svg">
<path d="M50 791.991C50 798.345 46.4844 803.841 34.7656 815C23.0469 803.726 20 798.345 20 791.991C20 785.638 27.5 780.487 34.7656 787.044C41.7969 780.602 50 785.638 50 791.991Z" fill="#FF0000"/>
<path d="M187 740.991C187 747.345 183.484 752.841 171.766 764C160.047 752.726 157 747.345 157 740.991C157 734.638 164.5 729.487 171.766 736.044C178.797 729.602 187 734.638 187 740.991Z" fill="#FF0000"/>
<path d="M50 595.991C50 602.345 46.4844 607.841 34.7656 619C23.0469 607.726 20 602.345 20 595.991C20 589.638 27.5 584.487 34.7656 591.044C41.7969 584.602 50 589.638 50 595.991Z" fill="#FF0000"/>
<path d="M137 525.991C137 532.345 133.484 537.841 121.766 549C110.047 537.726 107 532.345 107 525.991C107 519.638 114.5 514.487 121.766 521.044C128.797 514.602 137 519.638 137 525.991Z" fill="#FF0000"/>
<path d="M276 417.991C276 424.345 272.484 429.841 260.766 441C249.047 429.726 246 424.345 246 417.991C246 411.638 253.5 406.487 260.766 413.044C267.797 406.602 276 411.638 276 417.991Z" fill="#FF0000"/>
<path d="M328 539.991C328 546.345 324.484 551.841 312.766 563C301.047 551.726 298 546.345 298 539.991C298 533.638 305.5 528.487 312.766 535.044C319.797 528.602 328 533.638 328 539.991Z" fill="#FF0000"/>
<path d="M406 606.991C406 613.345 402.484 618.841 390.766 630C379.047 618.726 376 613.345 376 606.991C376 600.638 383.5 595.487 390.766 602.044C397.797 595.602 406 600.638 406 606.991Z" fill="#FDD500"/>
<path d="M261 590.991C261 597.345 257.484 602.841 245.766 614C234.047 602.726 231 597.345 231 590.991C231 584.638 238.5 579.487 245.766 586.044C252.797 579.602 261 584.638 261 590.991Z" fill="#FDD500"/>
<path d="M276 700.991C276 707.345 272.484 712.841 260.766 724C249.047 712.726 246 707.345 246 700.991C246 694.638 253.5 689.487 260.766 696.044C267.797 689.602 276 694.638 276 700.991Z" fill="#FDD500"/>
<path d="M244 760.991C244 767.345 240.484 772.841 228.766 784C217.047 772.726 214 767.345 214 760.991C214 754.638 221.5 749.487 228.766 756.044C235.797 749.602 244 754.638 244 760.991Z" fill="#FDD500"/>
<path d="M111 753.991C111 760.345 107.484 765.841 95.7656 777C84.0469 765.726 81 760.345 81 753.991C81 747.638 88.5 742.487 95.7656 749.044C102.797 742.602 111 747.638 111 753.991Z" fill="#FDD500"/>
<path d="M88 626.991C88 633.345 84.4844 638.841 72.7656 650C61.0469 638.726 58 633.345 58 626.991C58 620.638 65.5 615.487 72.7656 622.044C79.7969 615.602 88 620.638 88 626.991Z" fill="#FDD500"/>
<path d="M96 544.991C96 551.345 92.4844 556.841 80.7656 568C69.0469 556.726 66 551.345 66 544.991C66 538.638 73.5 533.487 80.7656 540.044C87.7969 533.602 96 538.638 96 544.991Z" fill="#FDD500"/>
<path d="M202 486.991C202 493.345 198.484 498.841 186.766 510C175.047 498.726 172 493.345 172 486.991C172 480.638 179.5 475.487 186.766 482.044C193.797 475.602 202 480.638 202 486.991Z" fill="#FDD500"/>
<path d="M212 417.991C212 424.345 208.484 429.841 196.766 441C185.047 429.726 182 424.345 182 417.991C182 411.638 189.5 406.487 196.766 413.044C203.797 406.602 212 411.638 212 417.991Z" fill="#FDD500"/>
<path d="M259 359.991C259 366.345 255.484 371.841 243.766 383C232.047 371.726 229 366.345 229 359.991C229 353.638 236.5 348.487 243.766 355.044C250.797 348.602 259 353.638 259 359.991Z" fill="#FDD500"/>
<path d="M126 346.991C126 353.345 122.484 358.841 110.766 370C99.0469 358.726 96 353.345 96 346.991C96 340.638 103.5 335.487 110.766 342.044C117.797 335.602 126 340.638 126 346.991Z" fill="#FDD500"/>
<path d="M54 346.991C54 353.345 50.4844 358.841 38.7656 370C27.0469 358.726 24 353.345 24 346.991C24 340.638 31.5 335.487 38.7656 342.044C45.7969 335.602 54 340.638 54 346.991Z" fill="#FDD500"/>
<path d="M353 621.991C353 628.345 349.484 633.841 337.766 645C326.047 633.726 323 628.345 323 621.991C323 615.638 330.5 610.487 337.766 617.044C344.797 610.602 353 615.638 353 621.991Z" fill="#FDD500"/>
<path d="M391 775.991C391 782.345 387.484 787.841 375.766 799C364.047 787.726 361 782.345 361 775.991C361 769.638 368.5 764.487 375.766 771.044C382.797 764.602 391 769.638 391 775.991Z" fill="#04B000"/>
<path d="M324 746.991C324 753.345 320.484 758.841 308.766 770C297.047 758.726 294 753.345 294 746.991C294 740.638 301.5 735.487 308.766 742.044C315.797 735.602 324 740.638 324 746.991Z" fill="#04B000"/>
<path d="M261 785.991C261 792.345 257.484 797.841 245.766 809C234.047 797.726 231 792.345 231 785.991C231 779.638 238.5 774.487 245.766 781.044C252.797 774.602 261 779.638 261 785.991Z" fill="#04B000"/>
<path d="M214 791.991C214 798.345 210.484 803.841 198.766 815C187.047 803.726 184 798.345 184 791.991C184 785.638 191.5 780.487 198.766 787.044C205.797 780.602 214 785.638 214 791.991Z" fill="#04B000"/>
<path d="M76 746.991C76 753.345 72.4844 758.841 60.7656 770C49.0469 758.726 46 753.345 46 746.991C46 740.638 53.5 735.487 60.7656 742.044C67.7969 735.602 76 740.638 76 746.991Z" fill="#04B000"/>
<path d="M208 610.991C208 617.345 204.484 622.841 192.766 634C181.047 622.726 178 617.345 178 610.991C178 604.638 185.5 599.487 192.766 606.044C199.797 599.602 208 604.638 208 610.991Z" fill="#04B000"/>
<path d="M338 486.991C338 493.345 334.484 498.841 322.766 510C311.047 498.726 308 493.345 308 486.991C308 480.638 315.5 475.487 322.766 482.044C329.797 475.602 338 480.638 338 486.991Z" fill="#04B000"/>
<path d="M384 556.991C384 563.345 380.484 568.841 368.766 580C357.047 568.726 354 563.345 354 556.991C354 550.638 361.5 545.487 368.766 552.044C375.797 545.602 384 550.638 384 556.991Z" fill="#04B000"/>
<path d="M326 585.991C326 592.345 322.484 597.841 310.766 609C299.047 597.726 296 592.345 296 585.991C296 579.638 303.5 574.487 310.766 581.044C317.797 574.602 326 579.638 326 585.991Z" fill="#04B000"/>
<path d="M238 458.991C238 465.345 234.484 470.841 222.766 482C211.047 470.726 208 465.345 208 458.991C208 452.638 215.5 447.487 222.766 454.044C229.797 447.602 238 452.638 238 458.991Z" fill="#04B000"/>
<path d="M187 359.991C187 366.345 183.484 371.841 171.766 383C160.047 371.726 157 366.345 157 359.991C157 353.638 164.5 348.487 171.766 355.044C178.797 348.602 187 353.638 187 359.991Z" fill="#04B000"/>
<path d="M331 337.991C331 344.345 327.484 349.841 315.766 361C304.047 349.726 301 344.345 301 337.991C301 331.638 308.5 326.487 315.766 333.044C322.797 326.602 331 331.638 331 337.991Z" fill="#04B000"/>
<path d="M399 346.991C399 353.345 395.484 358.841 383.766 370C372.047 358.726 369 353.345 369 346.991C369 340.638 376.5 335.487 383.766 342.044C390.797 335.602 399 340.638 399 346.991Z" fill="#04B000"/>
<path d="M391 243.991C391 250.345 387.484 255.841 375.766 267C364.047 255.726 361 250.345 361 243.991C361 237.638 368.5 232.487 375.766 239.044C382.797 232.602 391 237.638 391 243.991Z" fill="#012BFF"/>
<path d="M391 243.991C391 250.345 387.484 255.841 375.766 267C364.047 255.726 361 250.345 361 243.991C361 237.638 368.5 232.487 375.766 239.044C382.797 232.602 391 237.638 391 243.991Z" fill="#012BFF"/>
<path d="M361 340.991C361 347.345 357.484 352.841 345.766 364C334.047 352.726 331 347.345 331 340.991C331 334.638 338.5 329.487 345.766 336.044C352.797 329.602 361 334.638 361 340.991Z" fill="#012BFF"/>
<path d="M246 383.991C246 390.345 242.484 395.841 230.766 407C219.047 395.726 216 390.345 216 383.991C216 377.638 223.5 372.487 230.766 379.044C237.797 372.602 246 377.638 246 383.991Z" fill="#012BFF"/>
<path d="M106 306.991C106 313.345 102.484 318.841 90.7656 330C79.0469 318.726 76 313.345 76 306.991C76 300.638 83.5 295.487 90.7656 302.044C97.7969 295.602 106 300.638 106 306.991Z" fill="#012BFF"/>
<path d="M96 356.991C96 363.345 92.4844 368.841 80.7656 380C69.0469 368.726 66 363.345 66 356.991C66 350.638 73.5 345.487 80.7656 352.044C87.7969 345.602 96 350.638 96 356.991Z" fill="#012BFF"/>
<path d="M361 455.991C361 462.345 357.484 467.841 345.766 479C334.047 467.726 331 462.345 331 455.991C331 449.638 338.5 444.487 345.766 451.044C352.797 444.602 361 449.638 361 455.991Z" fill="#012BFF"/>
<path d="M399 651.991C399 658.345 395.484 663.841 383.766 675C372.047 663.726 369 658.345 369 651.991C369 645.638 376.5 640.487 383.766 647.044C390.797 640.602 399 645.638 399 651.991Z" fill="#012BFF"/>
<path d="M96 33.6365C96 63.5603 79.4766 89.4437 24.3985 142C-30.6797 88.9018 -45 63.5602 -45 33.6365C-45 3.71269 -9.75 -20.5453 24.3985 10.3383C57.4453 -20.0035 96 3.71272 96 33.6365Z" fill="#FDD500"/>
<path d="M461 34.6365C461 64.5603 444.477 90.4437 389.398 143C334.32 89.9018 320 64.5602 320 34.6365C320 4.71269 355.25 -19.5453 389.398 11.3383C422.445 -19.0035 461 4.71272 461 34.6365Z" fill="#04B000"/>
<path d="M246 685.991C246 692.345 242.484 697.841 230.766 709C219.047 697.726 216 692.345 216 685.991C216 679.638 223.5 674.487 230.766 681.044C237.797 674.602 246 679.638 246 685.991Z" fill="#012BFF"/>
<path d="M130 571.991C130 578.345 126.484 583.841 114.766 595C103.047 583.726 100 578.345 100 571.991C100 565.638 107.5 560.487 114.766 567.044C121.797 560.602 130 565.638 130 571.991Z" fill="#012BFF"/>
<path d="M58 554.991C58 561.345 54.4844 566.841 42.7656 578C31.0469 566.726 28 561.345 28 554.991C28 548.638 35.5 543.487 42.7656 550.044C49.7969 543.602 58 548.638 58 554.991Z" fill="#012BFF"/>
<path d="M193 822.991C193 829.345 189.484 834.841 177.766 846C166.047 834.726 163 829.345 163 822.991C163 816.638 170.5 811.487 177.766 818.044C184.797 811.602 193 816.638 193 822.991Z" fill="#012BFF"/>
<path d="M346 822.991C346 829.345 342.484 834.841 330.766 846C319.047 834.726 316 829.345 316 822.991C316 816.638 323.5 811.487 330.766 818.044C337.797 811.602 346 816.638 346 822.991Z" fill="#012BFF"/>
<path d="M376 740.991C376 747.345 372.484 752.841 360.766 764C349.047 752.726 346 747.345 346 740.991C346 734.638 353.5 729.487 360.766 736.044C367.797 729.602 376 734.638 376 740.991Z" fill="#012BFF"/>
<path d="M71 816.991C71 823.345 67.4844 828.841 55.7656 840C44.0469 828.726 41 823.345 41 816.991C41 810.638 48.5 805.487 55.7656 812.044C62.7969 805.602 71 810.638 71 816.991Z" fill="#012BFF"/>
<path d="M330 791.991C330 798.345 326.484 803.841 314.766 815C303.047 803.726 300 798.345 300 791.991C300 785.638 307.5 780.487 314.766 787.044C321.797 780.602 330 785.638 330 791.991Z" fill="#FF0000"/>
<path d="M276 641.991C276 648.345 272.484 653.841 260.766 665C249.047 653.726 246 648.345 246 641.991C246 635.638 253.5 630.487 260.766 637.044C267.797 630.602 276 635.638 276 641.991Z" fill="#FF0000"/>
<path d="M50 309.991C50 316.345 46.4844 321.841 34.7656 333C23.0469 321.726 20 316.345 20 309.991C20 303.638 27.5 298.487 34.7656 305.044C41.7969 298.602 50 303.638 50 309.991Z" fill="#FF0000"/>
<path d="M412 292.991C412 299.345 408.484 304.841 396.766 316C385.047 304.726 382 299.345 382 292.991C382 286.638 389.5 281.487 396.766 288.044C403.797 281.602 412 286.638 412 292.991Z" fill="#FF0000"/>
<path d="M411 489.991C411 496.345 407.484 501.841 395.766 513C384.047 501.726 381 496.345 381 489.991C381 483.638 388.5 478.487 395.766 485.044C402.797 478.602 411 483.638 411 489.991Z" fill="#FF9900"/>
<path d="M276 474.991C276 481.345 272.484 486.841 260.766 498C249.047 486.726 246 481.345 246 474.991C246 468.638 253.5 463.487 260.766 470.044C267.797 463.602 276 468.638 276 474.991Z" fill="#FF9900"/>
<path d="M137 466.991C137 473.345 133.484 478.841 121.766 490C110.047 478.726 107 473.345 107 466.991C107 460.638 114.5 455.487 121.766 462.044C128.797 455.602 137 460.638 137 466.991Z" fill="#FF9900"/>
<path d="M138 606.991C138 613.345 134.484 618.841 122.766 630C111.047 618.726 108 613.345 108 606.991C108 600.638 115.5 595.487 122.766 602.044C129.797 595.602 138 600.638 138 606.991Z" fill="#FF9900"/>
<path d="M50 503.991C50 510.345 46.4844 515.841 34.7656 527C23.0469 515.726 20 510.345 20 503.991C20 497.638 27.5 492.487 34.7656 499.044C41.7969 492.602 50 497.638 50 503.991Z" fill="#FF9900"/>
<path d="M187 666.991C187 673.345 183.484 678.841 171.766 690C160.047 678.726 157 673.345 157 666.991C157 660.638 164.5 655.487 171.766 662.044C178.797 655.602 187 660.638 187 666.991Z" fill="#FF9900"/>
<path d="M261 836.991C261 843.345 257.484 848.841 245.766 860C234.047 848.726 231 843.345 231 836.991C231 830.638 238.5 825.487 245.766 832.044C252.797 825.602 261 830.638 261 836.991Z" fill="#FF9900"/>
<path d="M118 822.991C118 829.345 114.484 834.841 102.766 846C91.0469 834.726 88 829.345 88 822.991C88 816.638 95.5 811.487 102.766 818.044C109.797 811.602 118 816.638 118 822.991Z" fill="#FF9900"/>
</svg>
